<mxfile host="app.diagrams.net" modified="2022-02-09T10:01:29.354Z" agent="5.0 (Windows NT 10.0; Win64; x64) AppleWebKit/537.36 (KHTML, like Gecko) Chrome/87.0.4280.141 Safari/537.36" etag="ROZY2j4Le8tmxV_bCFt0" version="16.5.4" type="github">
  <diagram id="gYynSZKOYsOQM2wcODcH" name="Page-1">
    <mxGraphModel dx="1422" dy="2018" grid="1" gridSize="10" guides="1" tooltips="1" connect="1" arrows="1" fold="1" page="1" pageScale="1" pageWidth="827" pageHeight="1169" math="0" shadow="0">
      <root>
        <mxCell id="0" />
        <mxCell id="1" parent="0" />
        <mxCell id="OJSFKAHnHgMdeHk7zM6y-1" value="&lt;div style=&quot;color: rgb(187 , 187 , 187) ; font-family: &amp;#34;consolas&amp;#34; , &amp;#34;courier new&amp;#34; , monospace ; font-size: 10px ; font-style: normal ; font-weight: 400 ; letter-spacing: normal ; text-align: left ; text-indent: 0px ; text-transform: none ; word-spacing: 0px&quot;&gt;&lt;br&gt;&lt;/div&gt;" style="text;whiteSpace=wrap;html=1;rounded=0;strokeColor=none;fillColor=none;gradientColor=#ffffff;" vertex="1" parent="1">
          <mxGeometry x="1127" y="300" width="350" height="210" as="geometry" />
        </mxCell>
        <mxCell id="OJSFKAHnHgMdeHk7zM6y-3" value="&lt;div style=&quot;text-align: left&quot;&gt;&lt;div&gt;&lt;font face=&quot;consolas, courier new, monospace&quot;&gt;&lt;span style=&quot;font-size: 10px&quot;&gt;//&lt;/span&gt;&lt;/font&gt;&lt;span style=&quot;font-size: 10px&quot;&gt;&lt;font face=&quot;consolas, courier new, monospace&quot;&gt;hw\char\stm32f2xx_usart.c&lt;/font&gt;&lt;/span&gt;&lt;/div&gt;&lt;div&gt;&lt;font face=&quot;consolas, courier new, monospace&quot;&gt;&lt;span style=&quot;font-size: 10px&quot;&gt;static const TypeInfo stm32f2xx_usart_info = {&lt;/span&gt;&lt;/font&gt;&lt;/div&gt;&lt;div&gt;&lt;font face=&quot;consolas, courier new, monospace&quot;&gt;&lt;span style=&quot;font-size: 10px&quot;&gt;&amp;nbsp; &amp;nbsp; .name&amp;nbsp; &amp;nbsp; &amp;nbsp; &amp;nbsp; &amp;nbsp; = TYPE_STM32F2XX_USART,&lt;/span&gt;&lt;/font&gt;&lt;/div&gt;&lt;div&gt;&lt;font face=&quot;consolas, courier new, monospace&quot;&gt;&lt;span style=&quot;font-size: 10px&quot;&gt;&amp;nbsp; &amp;nbsp; .parent&amp;nbsp; &amp;nbsp; &amp;nbsp; &amp;nbsp; = TYPE_SYS_BUS_DEVICE,&lt;/span&gt;&lt;/font&gt;&lt;/div&gt;&lt;div&gt;&lt;font face=&quot;consolas, courier new, monospace&quot;&gt;&lt;span style=&quot;font-size: 10px&quot;&gt;&amp;nbsp; &amp;nbsp; .instance_size = sizeof(STM32F2XXUsartState),&lt;/span&gt;&lt;/font&gt;&lt;/div&gt;&lt;div&gt;&lt;font face=&quot;consolas, courier new, monospace&quot;&gt;&lt;span style=&quot;font-size: 10px&quot;&gt;&amp;nbsp; &amp;nbsp; .instance_init = stm32f2xx_usart_init,&lt;/span&gt;&lt;/font&gt;&lt;/div&gt;&lt;div&gt;&lt;font face=&quot;consolas, courier new, monospace&quot;&gt;&lt;span style=&quot;font-size: 10px&quot;&gt;&amp;nbsp; &amp;nbsp; .class_init&amp;nbsp; &amp;nbsp; = stm32f2xx_usart_class_init,&lt;/span&gt;&lt;/font&gt;&lt;/div&gt;&lt;div&gt;&lt;font face=&quot;consolas, courier new, monospace&quot;&gt;&lt;span style=&quot;font-size: 10px&quot;&gt;};&lt;/span&gt;&lt;/font&gt;&lt;/div&gt;&lt;div&gt;&lt;font face=&quot;consolas, courier new, monospace&quot;&gt;&lt;span style=&quot;font-size: 10px&quot;&gt;&lt;br&gt;&lt;/span&gt;&lt;/font&gt;&lt;/div&gt;&lt;div&gt;&lt;font face=&quot;consolas, courier new, monospace&quot;&gt;&lt;span style=&quot;font-size: 10px&quot;&gt;static void stm32f2xx_usart_register_types(void)&lt;/span&gt;&lt;/font&gt;&lt;/div&gt;&lt;div&gt;&lt;font face=&quot;consolas, courier new, monospace&quot;&gt;&lt;span style=&quot;font-size: 10px&quot;&gt;{&lt;/span&gt;&lt;/font&gt;&lt;/div&gt;&lt;div&gt;&lt;font face=&quot;consolas, courier new, monospace&quot;&gt;&lt;span style=&quot;font-size: 10px&quot;&gt;&amp;nbsp; &amp;nbsp; type_register_static(&amp;amp;stm32f2xx_usart_info);&lt;/span&gt;&lt;/font&gt;&lt;/div&gt;&lt;div&gt;&lt;font face=&quot;consolas, courier new, monospace&quot;&gt;&lt;span style=&quot;font-size: 10px&quot;&gt;}&lt;/span&gt;&lt;/font&gt;&lt;/div&gt;&lt;div&gt;&lt;font face=&quot;consolas, courier new, monospace&quot;&gt;&lt;span style=&quot;font-size: 10px&quot;&gt;&lt;br&gt;&lt;/span&gt;&lt;/font&gt;&lt;/div&gt;&lt;div&gt;&lt;font face=&quot;consolas, courier new, monospace&quot;&gt;&lt;span style=&quot;font-size: 10px&quot;&gt;type_init(stm32f2xx_usart_register_types)&lt;/span&gt;&lt;/font&gt;&lt;/div&gt;&lt;/div&gt;" style="html=1;rounded=0;strokeColor=default;fillColor=none;gradientColor=#ffffff;fontColor=#000000;" vertex="1" parent="1">
          <mxGeometry x="450" y="220" width="340" height="210" as="geometry" />
        </mxCell>
        <mxCell id="OJSFKAHnHgMdeHk7zM6y-4" value="&lt;div style=&quot;color: rgb(187 , 187 , 187) ; background-color: rgb(40 , 44 , 52) ; font-family: &amp;#34;consolas&amp;#34; , &amp;#34;courier new&amp;#34; , monospace ; font-weight: normal ; font-size: 16px ; line-height: 22px&quot;&gt;&lt;div&gt;&lt;span style=&quot;color: #c678dd&quot;&gt;const&lt;/span&gt;&lt;span style=&quot;color: #bbbbbb&quot;&gt;&amp;nbsp;MemoryRegionOps&amp;nbsp;stm32f2xx_usart_ops&amp;nbsp;&lt;/span&gt;&lt;span style=&quot;color: #c678dd&quot;&gt;=&lt;/span&gt;&lt;span style=&quot;color: #bbbbbb&quot;&gt;&amp;nbsp;{&lt;/span&gt;&lt;/div&gt;&lt;div&gt;&lt;span style=&quot;color: #bbbbbb&quot;&gt;&amp;nbsp;&amp;nbsp;&amp;nbsp;&amp;nbsp;.read&amp;nbsp;&lt;/span&gt;&lt;span style=&quot;color: #c678dd&quot;&gt;=&lt;/span&gt;&lt;span style=&quot;color: #bbbbbb&quot;&gt;&amp;nbsp;stm32f2xx_usart_read,&lt;/span&gt;&lt;/div&gt;&lt;div&gt;&lt;span style=&quot;color: #bbbbbb&quot;&gt;&amp;nbsp;&amp;nbsp;&amp;nbsp;&amp;nbsp;.write&amp;nbsp;&lt;/span&gt;&lt;span style=&quot;color: #c678dd&quot;&gt;=&lt;/span&gt;&lt;span style=&quot;color: #bbbbbb&quot;&gt;&amp;nbsp;stm32f2xx_usart_write,&lt;/span&gt;&lt;/div&gt;&lt;div&gt;&lt;span style=&quot;color: #bbbbbb&quot;&gt;&amp;nbsp;&amp;nbsp;&amp;nbsp;&amp;nbsp;.endianness&amp;nbsp;&lt;/span&gt;&lt;span style=&quot;color: #c678dd&quot;&gt;=&lt;/span&gt;&lt;span style=&quot;color: #bbbbbb&quot;&gt;&amp;nbsp;DEVICE_NATIVE_ENDIAN,&lt;/span&gt;&lt;/div&gt;&lt;div&gt;&lt;span style=&quot;color: #bbbbbb&quot;&gt;};&lt;/span&gt;&lt;/div&gt;&lt;/div&gt;" style="text;whiteSpace=wrap;html=1;fontColor=#000000;" vertex="1" parent="1">
          <mxGeometry x="450" y="50" width="480" height="130" as="geometry" />
        </mxCell>
        <mxCell id="OJSFKAHnHgMdeHk7zM6y-5" value="&lt;div style=&quot;color: rgb(187, 187, 187); background-color: rgb(40, 44, 52); font-family: consolas, &amp;quot;courier new&amp;quot;, monospace; font-weight: normal; font-size: 16px; line-height: 22px;&quot;&gt;&lt;div&gt;&lt;span style=&quot;color: #bbbbbb&quot;&gt;Property&amp;nbsp;stm32f2xx_usart_properties&lt;/span&gt;&lt;span style=&quot;color: #c678dd&quot;&gt;[]&lt;/span&gt;&lt;span style=&quot;color: #bbbbbb&quot;&gt;&amp;nbsp;&lt;/span&gt;&lt;span style=&quot;color: #c678dd&quot;&gt;=&lt;/span&gt;&lt;span style=&quot;color: #bbbbbb&quot;&gt;&amp;nbsp;{&lt;/span&gt;&lt;/div&gt;&lt;div&gt;&lt;span style=&quot;color: #bbbbbb&quot;&gt;&amp;nbsp;&amp;nbsp;&amp;nbsp;&amp;nbsp;&lt;/span&gt;&lt;span style=&quot;color: #61afef&quot;&gt;DEFINE_PROP_CHR&lt;/span&gt;&lt;span style=&quot;color: #bbbbbb&quot;&gt;(&lt;/span&gt;&lt;span style=&quot;color: #98c379&quot;&gt;&quot;chardev&quot;&lt;/span&gt;&lt;span style=&quot;color: #bbbbbb&quot;&gt;,&amp;nbsp;STM32F2XXUsartState,&amp;nbsp;chr),&lt;/span&gt;&lt;/div&gt;&lt;div&gt;&lt;span style=&quot;color: #bbbbbb&quot;&gt;&amp;nbsp;&amp;nbsp;&amp;nbsp;&amp;nbsp;&lt;/span&gt;&lt;span style=&quot;color: #61afef&quot;&gt;DEFINE_PROP_END_OF_LIST&lt;/span&gt;&lt;span style=&quot;color: #bbbbbb&quot;&gt;(),&lt;/span&gt;&lt;/div&gt;&lt;div&gt;&lt;span style=&quot;color: #bbbbbb&quot;&gt;};&lt;/span&gt;&lt;/div&gt;&lt;br&gt;&lt;/div&gt;" style="text;whiteSpace=wrap;html=1;fontColor=#000000;" vertex="1" parent="1">
          <mxGeometry x="850" y="220" width="530" height="130" as="geometry" />
        </mxCell>
        <mxCell id="OJSFKAHnHgMdeHk7zM6y-6" value="&lt;div style=&quot;color: rgb(187, 187, 187); background-color: rgb(40, 44, 52); font-family: consolas, &amp;quot;courier new&amp;quot;, monospace; font-weight: normal; font-size: 16px; line-height: 22px;&quot;&gt;&lt;div&gt;&lt;span style=&quot;color: #c678dd&quot;&gt;#define&lt;/span&gt;&lt;span style=&quot;color: #bbbbbb&quot;&gt;&amp;nbsp;&lt;/span&gt;&lt;span style=&quot;color: #61afef&quot;&gt;TYPE_STM32F2XX_USART&lt;/span&gt;&lt;span style=&quot;color: #bbbbbb&quot;&gt;&amp;nbsp;&lt;/span&gt;&lt;span style=&quot;color: #98c379&quot;&gt;&quot;stm32f2xx-usart&quot;&lt;/span&gt;&lt;/div&gt;&lt;div&gt;&lt;span style=&quot;color: #61afef&quot;&gt;OBJECT_DECLARE_SIMPLE_TYPE&lt;/span&gt;&lt;span style=&quot;color: #bbbbbb&quot;&gt;(STM32F2XXUsartState,&amp;nbsp;STM32F2XX_USART)&lt;/span&gt;&lt;/div&gt;&lt;/div&gt;" style="text;whiteSpace=wrap;html=1;fontColor=#000000;" vertex="1" parent="1">
          <mxGeometry x="440" y="525" width="550" height="60" as="geometry" />
        </mxCell>
        <mxCell id="OJSFKAHnHgMdeHk7zM6y-8" value="SysBusDevice" style="swimlane;fontStyle=1;align=center;verticalAlign=top;childLayout=stackLayout;horizontal=1;startSize=26;horizontalStack=0;resizeParent=1;resizeParentMax=0;resizeLast=0;collapsible=1;marginBottom=0;rounded=0;fontColor=#000000;strokeColor=default;fillColor=none;gradientColor=#ffffff;" vertex="1" parent="1">
          <mxGeometry x="150" y="220" width="160" height="86" as="geometry" />
        </mxCell>
        <mxCell id="OJSFKAHnHgMdeHk7zM6y-9" value="+ field: type" style="text;strokeColor=none;fillColor=none;align=left;verticalAlign=top;spacingLeft=4;spacingRight=4;overflow=hidden;rotatable=0;points=[[0,0.5],[1,0.5]];portConstraint=eastwest;rounded=0;fontColor=#000000;" vertex="1" parent="OJSFKAHnHgMdeHk7zM6y-8">
          <mxGeometry y="26" width="160" height="26" as="geometry" />
        </mxCell>
        <mxCell id="OJSFKAHnHgMdeHk7zM6y-10" value="" style="line;strokeWidth=1;fillColor=none;align=left;verticalAlign=middle;spacingTop=-1;spacingLeft=3;spacingRight=3;rotatable=0;labelPosition=right;points=[];portConstraint=eastwest;rounded=0;fontColor=#000000;" vertex="1" parent="OJSFKAHnHgMdeHk7zM6y-8">
          <mxGeometry y="52" width="160" height="8" as="geometry" />
        </mxCell>
        <mxCell id="OJSFKAHnHgMdeHk7zM6y-11" value="+ method(type): type" style="text;strokeColor=none;fillColor=none;align=left;verticalAlign=top;spacingLeft=4;spacingRight=4;overflow=hidden;rotatable=0;points=[[0,0.5],[1,0.5]];portConstraint=eastwest;rounded=0;fontColor=#000000;" vertex="1" parent="OJSFKAHnHgMdeHk7zM6y-8">
          <mxGeometry y="60" width="160" height="26" as="geometry" />
        </mxCell>
        <mxCell id="OJSFKAHnHgMdeHk7zM6y-12" value="&amp;laquo;interface&amp;raquo;&lt;br&gt;&lt;b&gt;Name&lt;/b&gt;" style="html=1;rounded=0;fontColor=#000000;strokeColor=default;fillColor=none;gradientColor=#ffffff;" vertex="1" parent="1">
          <mxGeometry x="360" y="310" width="110" height="50" as="geometry" />
        </mxCell>
        <mxCell id="OJSFKAHnHgMdeHk7zM6y-13" value="DeviceState" style="swimlane;fontStyle=1;align=center;verticalAlign=top;childLayout=stackLayout;horizontal=1;startSize=26;horizontalStack=0;resizeParent=1;resizeParentMax=0;resizeLast=0;collapsible=1;marginBottom=0;rounded=0;fontColor=#000000;strokeColor=default;fillColor=none;gradientColor=#ffffff;" vertex="1" parent="1">
          <mxGeometry x="150" y="70" width="160" height="86" as="geometry" />
        </mxCell>
        <mxCell id="OJSFKAHnHgMdeHk7zM6y-14" value="+ field: type" style="text;strokeColor=none;fillColor=none;align=left;verticalAlign=top;spacingLeft=4;spacingRight=4;overflow=hidden;rotatable=0;points=[[0,0.5],[1,0.5]];portConstraint=eastwest;rounded=0;fontColor=#000000;" vertex="1" parent="OJSFKAHnHgMdeHk7zM6y-13">
          <mxGeometry y="26" width="160" height="26" as="geometry" />
        </mxCell>
        <mxCell id="OJSFKAHnHgMdeHk7zM6y-15" value="" style="line;strokeWidth=1;fillColor=none;align=left;verticalAlign=middle;spacingTop=-1;spacingLeft=3;spacingRight=3;rotatable=0;labelPosition=right;points=[];portConstraint=eastwest;rounded=0;fontColor=#000000;" vertex="1" parent="OJSFKAHnHgMdeHk7zM6y-13">
          <mxGeometry y="52" width="160" height="8" as="geometry" />
        </mxCell>
        <mxCell id="OJSFKAHnHgMdeHk7zM6y-16" value="+ method(type): type" style="text;strokeColor=none;fillColor=none;align=left;verticalAlign=top;spacingLeft=4;spacingRight=4;overflow=hidden;rotatable=0;points=[[0,0.5],[1,0.5]];portConstraint=eastwest;rounded=0;fontColor=#000000;" vertex="1" parent="OJSFKAHnHgMdeHk7zM6y-13">
          <mxGeometry y="60" width="160" height="26" as="geometry" />
        </mxCell>
        <mxCell id="OJSFKAHnHgMdeHk7zM6y-17" value="Extends" style="endArrow=block;endSize=16;endFill=0;html=1;rounded=0;fontColor=#000000;exitX=0.5;exitY=0;exitDx=0;exitDy=0;" edge="1" parent="1" source="OJSFKAHnHgMdeHk7zM6y-8" target="OJSFKAHnHgMdeHk7zM6y-16">
          <mxGeometry width="160" relative="1" as="geometry">
            <mxPoint x="250" y="360" as="sourcePoint" />
            <mxPoint x="410" y="360" as="targetPoint" />
          </mxGeometry>
        </mxCell>
        <mxCell id="OJSFKAHnHgMdeHk7zM6y-26" value="Object" style="html=1;rounded=0;fontColor=#000000;strokeColor=default;fillColor=none;gradientColor=#ffffff;" vertex="1" parent="1">
          <mxGeometry x="175" y="-50" width="110" height="30" as="geometry" />
        </mxCell>
        <mxCell id="OJSFKAHnHgMdeHk7zM6y-27" value="Extends" style="endArrow=block;endSize=16;endFill=0;html=1;rounded=0;fontColor=#000000;" edge="1" parent="1" source="OJSFKAHnHgMdeHk7zM6y-13" target="OJSFKAHnHgMdeHk7zM6y-26">
          <mxGeometry width="160" relative="1" as="geometry">
            <mxPoint x="200" y="210" as="sourcePoint" />
            <mxPoint x="230.8771929824561" y="166" as="targetPoint" />
          </mxGeometry>
        </mxCell>
        <mxCell id="OJSFKAHnHgMdeHk7zM6y-28" value="Property" style="swimlane;fontStyle=1;align=center;verticalAlign=top;childLayout=stackLayout;horizontal=1;startSize=26;horizontalStack=0;resizeParent=1;resizeParentMax=0;resizeLast=0;collapsible=1;marginBottom=0;rounded=0;fontColor=#000000;strokeColor=default;fillColor=none;gradientColor=#ffffff;" vertex="1" parent="1">
          <mxGeometry x="490" y="-200" width="160" height="86" as="geometry" />
        </mxCell>
        <mxCell id="OJSFKAHnHgMdeHk7zM6y-29" value="+ field: type" style="text;strokeColor=none;fillColor=none;align=left;verticalAlign=top;spacingLeft=4;spacingRight=4;overflow=hidden;rotatable=0;points=[[0,0.5],[1,0.5]];portConstraint=eastwest;rounded=0;fontColor=#000000;" vertex="1" parent="OJSFKAHnHgMdeHk7zM6y-28">
          <mxGeometry y="26" width="160" height="26" as="geometry" />
        </mxCell>
        <mxCell id="OJSFKAHnHgMdeHk7zM6y-30" value="" style="line;strokeWidth=1;fillColor=none;align=left;verticalAlign=middle;spacingTop=-1;spacingLeft=3;spacingRight=3;rotatable=0;labelPosition=right;points=[];portConstraint=eastwest;rounded=0;fontColor=#000000;" vertex="1" parent="OJSFKAHnHgMdeHk7zM6y-28">
          <mxGeometry y="52" width="160" height="8" as="geometry" />
        </mxCell>
        <mxCell id="OJSFKAHnHgMdeHk7zM6y-31" value="+ method(type): type" style="text;strokeColor=none;fillColor=none;align=left;verticalAlign=top;spacingLeft=4;spacingRight=4;overflow=hidden;rotatable=0;points=[[0,0.5],[1,0.5]];portConstraint=eastwest;rounded=0;fontColor=#000000;" vertex="1" parent="OJSFKAHnHgMdeHk7zM6y-28">
          <mxGeometry y="60" width="160" height="26" as="geometry" />
        </mxCell>
      </root>
    </mxGraphModel>
  </diagram>
</mxfile>
